<svg xmlns="http://www.w3.org/2000/svg" viewBox="0 0 256 256">
  <defs>
    <linearGradient id="g1" x1="0" y1="0" x2="1" y2="1">
      <stop offset="0" stop-color="#B163F7"/>
      <stop offset="1" stop-color="#59D1FF"/>
    </linearGradient>
    <linearGradient id="g2" x1="1" y1="0" x2="0" y2="1">
      <stop offset="0" stop-color="#FF73C3"/>
      <stop offset="1" stop-color="#59D1FF"/>
    </linearGradient>
  </defs>
  <rect width="256" height="256" fill="none"/>
  <g fill="none" stroke="#7A7A7A" stroke-width="2" opacity="0.5">
    <circle cx="128" cy="32" r="3"/>
    <circle cx="128" cy="224" r="3"/>
    <circle cx="32" cy="128" r="3"/>
    <circle cx="224" cy="128" r="3"/>
    <circle cx="64" cy="64" r="3"/>
    <circle cx="192" cy="64" r="3"/>
    <circle cx="64" cy="192" r="3"/>
    <circle cx="192" cy="192" r="3"/>
    <path d="M128 32 V56 M128 200 V224 M32 128 H56 M200 128 H224 M64 64 L80 80 M176 176 L192 192 M64 192 L80 176 M176 80 L192 64"/>
  </g>
  <path d="M80 92c36-40 60-40 96 0" stroke="url(#g1)" stroke-width="20" fill="none" stroke-linecap="round"/>
  <path d="M80 164c36 40 60 40 96 0" stroke="url(#g2)" stroke-width="20" fill="none" stroke-linecap="round"/>
  <circle cx="128" cy="128" r="6" fill="#6EE1FF"/>
</svg>
